<?xml version="1.0" encoding="UTF-8" standalone="no"?>
<svg
   xmlns="http://www.w3.org/2000/svg"
   fill="none"
   height="33"
   viewBox="0 0 35 33"
   width="35"
   version="1.1"
>
  <style type="text/css">
    <![CDATA[
      .p {
        stroke-width:0.25;
        stroke-linecap:round;
        stroke-linejoin:round;
      }
      .p-1 { fill:#38b1df; stroke:#38b1df; }
      .p-2 { fill:#21a0d0; stroke:#21a0d0; }
      .p-3 { fill:#1b85ad; stroke:#1b85ad; }
      .p-4 { fill:#135e7a; stroke:#135e7a; }
    ]]>
  </style>
  <path
    class="p p-2"
    d="M 32.9582,1 19.8241,10.7183 22.2665,4.99099 Z" />
  <path
    class="p p-2"
    d="M 2.66296,1 15.6801,10.809 13.3547,4.99098 Z" />
  <path
    class="p p-2"
    d="m 28.2295,23.5335 -3.4947,5.3386 7.4829,2.0603 2.1436,-7.2823 z" />
  <path
    class="p p-2"
    d="M 1.27281,23.6501 3.40336,30.9324 10.8733,28.8721 7.39164,23.5335 Z" />
  <path
    class="p p-2"
    d="m 10.4706,14.5149 -2.0786,3.1358 7.405,0.3369 -0.2469,-7.969 z" />
  <path
    class="p p-2"
    d="M 25.1505,14.5149 19.993,9.92786 19.8242,17.9876 27.2291,17.6507 Z" />
  <path
    class="p p-2"
    d="M 10.8733,28.8721 15.3552,26.7082 11.4969,23.702 Z" />
  <path
    class="p p-2"
    d="m 20.2659,26.7082 4.4689,2.1639 -0.6105,-5.1701 z" />
  <path
    class="p" style="fill:#d5bfb2; stroke:#d5bfb2;"
    d="m 24.7348,28.8721 -4.469,-2.1639 0.3638,2.9025 -0.039,1.231 z" />
  <path
    class="p" style="fill:#d5bfb2; stroke:#d5bfb2;"
    d="m 10.8732,28.8721 4.1572,1.9696 -0.026,-1.231 0.3508,-2.9025 z" />
  <path
    class="p" style="fill:#233447; stroke:#233447;"
    d="m 15.1084,21.7842 -3.7155,-1.0884 2.6243,-1.2051 z" />
  <path
    class="p" style="fill:#233447; stroke:#233447;"
    d="m 20.5126,21.7842 1.0913,-2.2935 2.6372,1.2051 z" />
  <path
    class="p p-3"
    d="m 10.8733,28.8721 0.6495,-5.3386 -4.13117,0.1167 z" />
  <path
    class="p p-3"
    d="m 24.0982,23.5335 0.6366,5.3386 3.4946,-5.2219 z" />
  <path
    class="p p-3"
    d="m 27.2291,17.6507 -7.405,0.3369 0.6885,3.7966 1.0913,-2.2935 2.6372,1.2051 z" />
  <path
    class="p p-3"
    d="m 11.3929,20.6958 2.6242,-1.2051 1.0913,2.2935 0.6885,-3.7966 -7.40495,-0.3369 z" />
  <path
    class="p p-2"
    d="M 8.392,17.6507 11.4969,23.702 11.393,20.6958 Z" />
  <path
    class="p p-2"
    d="m 24.2412,20.6958 -0.1169,3.0062 3.1049,-6.0513 z" />
  <path
    class="p p-2"
    d="m 15.797,17.9876 -0.6886,3.7967 0.8704,4.4833 0.1949,-5.9087 z" />
  <path
    class="p p-2"
    d="m 19.8242,17.9876 -0.3638,2.3584 0.1819,5.9216 0.8704,-4.4833 z" />
  <path
    class="p p-1"
    d="m 20.5127,21.7842 -0.8704,4.4834 0.6236,0.4406 3.8584,-3.0062 0.1169,-3.0062 z" />
  <path
    class="p p-1"
    d="m 11.3929,20.6958 0.104,3.0062 3.8583,3.0062 0.6236,-0.4406 -0.8704,-4.4834 z" />
  <path
    class="p" style="fill:#c0ac9d; stroke:#c0ac9d;"
    d="m 20.5906,30.8417 0.039,-1.231 -0.3378,-0.2851 h -4.9626 l -0.3248,0.2851 0.026,1.231 -4.1572,-1.9696 1.4551,1.1921 2.9489,2.0344 h 5.0536 l 2.962,-2.0344 1.442,-1.1921 z" />
  <path
    class="p" style="fill:#161616; stroke:#161616;"
    d="m 20.2659,26.7082 -0.6236,-0.4406 h -3.6635 l -0.6236,0.4406 -0.3508,2.9025 0.3248,-0.2851 h 4.9626 l 0.3378,0.2851 z" />
  <path
    class="p p-4"
    d="M 33.5168,11.3532 34.6211,5.98873 32.9582,1 l -12.6923,9.3944 4.8846,4.1205 6.8983,2.0085 1.52,-1.7752 -0.6626,-0.4795 1.0523,-0.9588 -0.8054,-0.622 1.0523,-0.8034 z" />
  <path
    class="p p-4"
    d="m 1,5.98873 1.11724,5.36447 -0.71451,0.5313 1.06527,0.8034 -0.80545,0.622 1.05228,0.9588 -0.66255,0.4795 1.51997,1.7752 6.89835,-2.0085 4.8846,-4.1205 L 2.66287,1 Z" />
  <path
    class="p p-1"
    d="m 32.0489,16.5234 -6.8983,-2.0085 2.0786,3.1358 -3.1049,6.0513 4.1052,-0.0519 h 6.1318 z" />
  <path
    class="p p-1"
    d="M 10.4705,14.5149 3.57222,16.5234 1.27278,23.6501 H 7.39161 L 11.4968,23.702 8.39193,17.6507 Z" />
  <path
    class="p p-1"
    d="m 19.8241,17.9876 0.4417,-7.5932 2.0007,-5.4034 h -8.9119 l 2.0006,5.4034 0.4417,7.5932 0.1689,2.3842 0.013,5.8958 h 3.6635 l 0.013,-5.8958 z" />
</svg>
